<?xml version="1.0" encoding="UTF-8" standalone="no"?>
<!DOCTYPE svg PUBLIC "-//W3C//DTD SVG 1.1//EN" "http://www.w3.org/Graphics/SVG/1.1/DTD/svg11.dtd">
<svg xmlns="http://www.w3.org/2000/svg" version="1.1" viewBox="0.00 0.00 500.00 500.00">
<g stroke-width="2.00" fill="none" stroke-linecap="butt">
<path stroke="#878886" vector-effect="non-scaling-stroke" d="
  M 256.42 73.79
  Q 247.44 74.55 238.58 73.57"
/>
<path stroke="#525954" stroke-opacity="0.996" vector-effect="non-scaling-stroke" d="
  M 261.21 73.73
  Q 262.27 74.52 264.50 74.74
  C 345.46 82.73 411.28 145.45 421.93 226.45
  C 423.70 239.87 423.79 249.51 422.96 263.97
  Q 422.72 268.17 421.98 272.47
  Q 421.24 276.72 420.50 280.93
  Q 413.66 319.51 391.28 351.52
  Q 391.02 351.90 391.51 352.03"
/>
<path stroke="#525954" stroke-opacity="0.996" vector-effect="non-scaling-stroke" d="
  M 390.23 353.76
  Q 389.71 353.68 389.59 353.83
  C 361.83 391.13 322.45 416.12 276.41 423.58
  Q 269.68 424.67 262.76 425.96"
/>
<path stroke="#878886" vector-effect="non-scaling-stroke" d="
  M 258.39 426.35
  L 236.39 426.20"
/>
<path stroke="#525954" stroke-opacity="0.996" vector-effect="non-scaling-stroke" d="
  M 231.24 426.05
  Q 231.44 425.38 230.70 425.31
  C 152.06 416.89 89.89 361.01 74.29 283.48
  Q 74.23 283.17 73.73 283.26"
/>
<path stroke="#525954" stroke-opacity="0.996" vector-effect="non-scaling-stroke" d="
  M 73.62 282.10
  Q 74.28 279.07 72.80 276.69"
/>
<path stroke="#525954" stroke-opacity="0.996" vector-effect="non-scaling-stroke" d="
  M 72.52 275.03
  Q 72.90 274.75 72.88 274.44
  Q 72.43 268.74 71.04 257.13"
/>
<path stroke="#525954" stroke-opacity="0.996" vector-effect="non-scaling-stroke" d="
  M 71.55 238.18
  Q 74.72 192.29 99.52 154.25
  C 129.70 107.96 176.09 80.83 230.90 74.47
  Q 231.23 74.43 231.40 74.14
  L 231.59 73.83"
/>
<path stroke="#878886" vector-effect="non-scaling-stroke" d="
  M 400.99 249.89
  A 153.88 153.88 0.0 0 0 247.11 96.01
  A 153.88 153.88 0.0 0 0 93.23 249.89
  A 153.88 153.88 0.0 0 0 247.11 403.77
  A 153.88 153.88 0.0 0 0 400.99 249.89"
/>
<path stroke="#878886" vector-effect="non-scaling-stroke" d="
  M 398.26 249.88
  A 151.16 151.16 0.0 0 0 247.10 98.72
  A 151.16 151.16 0.0 0 0 95.94 249.88
  A 151.16 151.16 0.0 0 0 247.10 401.04
  A 151.16 151.16 0.0 0 0 398.26 249.88"
/>
<path stroke="#878886" vector-effect="non-scaling-stroke" d="
  M 163.77 306.23
  A 0.51 0.51 0.0 0 1 162.81 305.91
  L 173.48 256.29
  Q 173.65 255.52 174.15 256.13
  C 181.60 265.09 187.40 276.08 193.45 286.06
  C 199.53 296.10 212.10 315.31 226.47 305.75
  C 228.04 304.71 228.06 303.56 226.51 302.45
  A 1.24 1.23 43.2 0 0 225.01 302.49
  C 214.70 310.62 204.29 296.45 199.44 288.80
  C 192.34 277.59 185.92 265.17 177.65 254.83
  A 0.48 0.48 0.0 0 1 177.90 254.07
  C 212.77 244.97 231.62 207.29 238.85 175.28
  Q 238.98 174.68 238.47 174.33
  L 237.95 173.97
  A 1.60 1.59 23.9 0 0 235.50 174.91
  C 228.03 205.91 209.53 243.48 175.22 250.96
  A 0.21 0.21 0.0 0 1 174.97 250.71
  L 189.86 188.32
  A 1.63 1.62 16.4 0 0 188.82 186.42
  Q 186.75 185.67 186.22 187.88
  Q 179.05 218.03 171.98 248.11
  A 0.51 0.50 24.8 0 1 171.18 248.40
  Q 166.26 244.63 160.03 244.48
  C 156.63 244.40 154.71 247.55 156.99 250.41
  C 160.00 254.16 165.26 254.82 169.81 255.10
  Q 170.38 255.13 170.25 255.69
  Q 164.26 280.29 159.75 305.20
  C 159.33 307.57 159.25 310.09 159.25 312.41
  A 2.34 2.34 0.0 0 0 161.86 314.73
  Q 162.90 314.61 163.68 313.42
  Q 165.54 310.56 167.00 307.06
  A 1.34 1.33 15.5 0 0 165.96 305.23
  Q 164.34 304.99 163.77 306.23"
/>
<path stroke="#878886" vector-effect="non-scaling-stroke" d="
  M 259.98 253.28
  Q 261.80 247.24 263.23 241.33
  Q 263.50 240.26 263.36 239.60
  Q 263.03 237.99 261.14 238.78
  A 2.34 2.32 -6.3 0 0 259.76 240.49
  C 258.30 248.31 252.70 262.19 244.81 265.71
  Q 244.32 265.93 243.85 265.66
  C 240.00 263.51 239.14 252.02 239.06 248.11
  A 1.59 1.58 -20.8 0 0 236.44 246.94
  Q 235.97 247.33 235.19 248.42
  Q 230.48 254.97 224.91 260.90
  Q 224.49 261.35 224.52 260.74
  Q 225.02 250.38 232.07 242.98
  C 234.41 240.52 236.89 242.48 238.87 244.04
  C 239.98 244.92 240.95 244.65 241.45 243.37
  A 1.61 1.61 0.0 0 0 241.27 241.85
  C 238.56 238.07 234.09 237.27 230.35 240.00
  C 224.62 244.19 220.84 254.87 221.11 261.71
  C 221.29 266.39 225.60 265.33 227.75 263.00
  Q 231.83 258.59 235.44 253.67
  Q 235.80 253.18 235.90 253.78
  C 237.63 264.11 241.77 277.54 253.58 262.63
  Q 253.97 262.15 253.85 262.75
  C 253.39 265.13 252.55 267.99 252.76 270.41
  A 1.61 1.61 0.0 0 0 255.86 270.85
  C 258.44 264.26 262.40 253.85 267.66 248.92
  A 0.99 0.98 -35.4 0 1 269.20 249.18
  C 273.17 256.77 275.04 272.88 286.91 259.07
  Q 287.28 258.64 287.45 259.18
  C 290.13 267.68 298.53 267.32 302.08 259.85
  Q 302.34 259.31 302.94 259.34
  Q 310.19 259.66 315.66 254.95
  Q 316.24 254.46 316.03 255.19
  Q 314.13 262.09 313.00 269.17
  Q 312.83 270.21 313.05 270.80
  Q 313.49 271.98 314.91 271.66
  A 1.89 1.87 4.1 0 0 316.26 270.50
  C 318.78 264.08 322.94 253.00 328.32 248.65
  A 0.58 0.58 0.0 0 1 329.19 248.80
  C 331.64 252.96 333.07 263.22 338.84 264.36
  C 344.18 265.41 350.76 254.26 353.09 249.19
  Q 353.87 247.47 352.02 247.11
  A 1.70 1.69 20.2 0 0 350.21 247.94
  C 348.22 251.49 343.60 259.79 339.53 260.96
  Q 339.02 261.11 338.65 260.74
  C 335.87 258.02 334.90 252.78 333.41 249.43
  C 329.03 239.60 322.58 249.02 320.33 253.53
  A 0.15 0.15 0.0 0 1 320.06 253.42
  Q 321.80 247.28 323.55 241.23
  C 323.91 240.00 323.76 239.07 322.56 238.55
  A 1.43 1.43 0.0 0 0 320.67 239.35
  C 319.36 242.74 318.90 246.75 316.58 249.42
  Q 312.65 253.96 306.22 255.99
  Q 303.10 256.96 303.65 253.74
  C 304.10 251.03 303.75 245.90 301.74 243.17
  C 299.48 240.08 295.70 241.58 294.31 244.65
  Q 294.10 245.09 293.64 245.23
  Q 290.36 246.16 289.50 248.03
  Q 286.14 255.32 280.85 260.37
  A 2.05 2.05 0.0 0 1 277.86 260.19
  C 274.74 256.42 274.48 247.57 269.90 245.57
  C 265.57 243.67 261.84 250.17 260.09 253.32
  A 0.06 0.06 0.0 0 1 259.98 253.28"
/>
<path stroke="#878886" vector-effect="non-scaling-stroke" d="
  M 169.30 251.23
  Q 165.12 248.33 160.08 247.78
  A 0.40 0.40 0.0 0 0 159.79 248.49
  Q 163.91 251.74 169.25 251.43
  Q 169.55 251.41 169.30 251.23"
/>
<path stroke="#878886" vector-effect="non-scaling-stroke" d="
  M 297.59 245.72
  Q 295.42 250.71 299.81 253.93
  Q 300.15 254.18 300.19 253.75
  Q 300.58 249.68 299.34 245.83
  Q 299.23 245.52 299.01 245.37
  Q 298.68 245.14 298.41 245.21
  Q 297.74 245.38 297.59 245.72"
/>
<path stroke="#878886" vector-effect="non-scaling-stroke" d="
  M 293.49 251.18
  Q 293.02 250.00 292.33 251.06
  Q 288.72 256.64 292.87 261.70
  A 1.07 1.07 0.0 0 0 293.83 262.09
  Q 297.53 261.70 298.95 258.24
  Q 299.16 257.74 298.70 257.46
  Q 295.09 255.20 293.49 251.18"
/>
</g>
<path fill="#f2efeb" d="
  M 256.42 73.79
  Q 247.44 74.55 238.58 73.57
  Q 247.62 72.16 256.42 73.79
  Z"
/>
<path fill="#1c2120" d="
  M 238.58 73.57
  Q 247.44 74.55 256.42 73.79
  L 261.21 73.73
  Q 262.27 74.52 264.50 74.74
  C 345.46 82.73 411.28 145.45 421.93 226.45
  C 423.70 239.87 423.79 249.51 422.96 263.97
  Q 422.72 268.17 421.98 272.47
  Q 421.24 276.72 420.50 280.93
  Q 413.66 319.51 391.28 351.52
  Q 391.02 351.90 391.51 352.03
  L 390.23 353.76
  Q 389.71 353.68 389.59 353.83
  C 361.83 391.13 322.45 416.12 276.41 423.58
  Q 269.68 424.67 262.76 425.96
  L 258.39 426.35
  L 236.39 426.20
  L 231.24 426.05
  Q 231.44 425.38 230.70 425.31
  C 152.06 416.89 89.89 361.01 74.29 283.48
  Q 74.23 283.17 73.73 283.26
  L 73.62 282.10
  Q 74.28 279.07 72.80 276.69
  Q 72.30 276.60 72.52 275.03
  Q 72.90 274.75 72.88 274.44
  Q 72.43 268.74 71.04 257.13
  Q 70.28 247.49 71.55 238.18
  Q 74.72 192.29 99.52 154.25
  C 129.70 107.96 176.09 80.83 230.90 74.47
  Q 231.23 74.43 231.40 74.14
  L 231.59 73.83
  L 238.58 73.57
  Z
  M 400.99 249.89
  A 153.88 153.88 0.0 0 0 247.11 96.01
  A 153.88 153.88 0.0 0 0 93.23 249.89
  A 153.88 153.88 0.0 0 0 247.11 403.77
  A 153.88 153.88 0.0 0 0 400.99 249.89
  Z"
/>
<path fill="#899189" fill-opacity="0.992" d="
  M 231.59 73.83
  L 231.40 74.14
  Q 231.23 74.43 230.90 74.47
  C 176.09 80.83 129.70 107.96 99.52 154.25
  Q 74.72 192.29 71.55 238.18
  Q 70.89 236.03 71.43 231.41
  Q 77.76 177.50 111.02 137.37
  C 141.47 100.61 183.67 78.78 231.59 73.83
  Z"
/>
<path fill="#899189" fill-opacity="0.992" d="
  M 261.21 73.73
  C 352.16 80.64 423.54 157.07 424.14 247.94
  C 424.38 284.19 413.68 322.59 391.51 352.03
  Q 391.02 351.90 391.28 351.52
  Q 413.66 319.51 420.50 280.93
  Q 421.24 276.72 421.98 272.47
  Q 422.72 268.17 422.96 263.97
  C 423.79 249.51 423.70 239.87 421.93 226.45
  C 411.28 145.45 345.46 82.73 264.50 74.74
  Q 262.27 74.52 261.21 73.73
  Z"
/>
<path fill="#f2efeb" d="
  M 400.99 249.89
  A 153.88 153.88 0.0 0 1 247.11 403.77
  A 153.88 153.88 0.0 0 1 93.23 249.89
  A 153.88 153.88 0.0 0 1 247.11 96.01
  A 153.88 153.88 0.0 0 1 400.99 249.89
  Z
  M 398.26 249.88
  A 151.16 151.16 0.0 0 0 247.10 98.72
  A 151.16 151.16 0.0 0 0 95.94 249.88
  A 151.16 151.16 0.0 0 0 247.10 401.04
  A 151.16 151.16 0.0 0 0 398.26 249.88
  Z"
/>
<path fill="#1c2120" d="
  M 398.26 249.88
  A 151.16 151.16 0.0 0 1 247.10 401.04
  A 151.16 151.16 0.0 0 1 95.94 249.88
  A 151.16 151.16 0.0 0 1 247.10 98.72
  A 151.16 151.16 0.0 0 1 398.26 249.88
  Z
  M 163.77 306.23
  A 0.51 0.51 0.0 0 1 162.81 305.91
  L 173.48 256.29
  Q 173.65 255.52 174.15 256.13
  C 181.60 265.09 187.40 276.08 193.45 286.06
  C 199.53 296.10 212.10 315.31 226.47 305.75
  C 228.04 304.71 228.06 303.56 226.51 302.45
  A 1.24 1.23 43.2 0 0 225.01 302.49
  C 214.70 310.62 204.29 296.45 199.44 288.80
  C 192.34 277.59 185.92 265.17 177.65 254.83
  A 0.48 0.48 0.0 0 1 177.90 254.07
  C 212.77 244.97 231.62 207.29 238.85 175.28
  Q 238.98 174.68 238.47 174.33
  L 237.95 173.97
  A 1.60 1.59 23.9 0 0 235.50 174.91
  C 228.03 205.91 209.53 243.48 175.22 250.96
  A 0.21 0.21 0.0 0 1 174.97 250.71
  L 189.86 188.32
  A 1.63 1.62 16.4 0 0 188.82 186.42
  Q 186.75 185.67 186.22 187.88
  Q 179.05 218.03 171.98 248.11
  A 0.51 0.50 24.8 0 1 171.18 248.40
  Q 166.26 244.63 160.03 244.48
  C 156.63 244.40 154.71 247.55 156.99 250.41
  C 160.00 254.16 165.26 254.82 169.81 255.10
  Q 170.38 255.13 170.25 255.69
  Q 164.26 280.29 159.75 305.20
  C 159.33 307.57 159.25 310.09 159.25 312.41
  A 2.34 2.34 0.0 0 0 161.86 314.73
  Q 162.90 314.61 163.68 313.42
  Q 165.54 310.56 167.00 307.06
  A 1.34 1.33 15.5 0 0 165.96 305.23
  Q 164.34 304.99 163.77 306.23
  Z
  M 259.98 253.28
  Q 261.80 247.24 263.23 241.33
  Q 263.50 240.26 263.36 239.60
  Q 263.03 237.99 261.14 238.78
  A 2.34 2.32 -6.3 0 0 259.76 240.49
  C 258.30 248.31 252.70 262.19 244.81 265.71
  Q 244.32 265.93 243.85 265.66
  C 240.00 263.51 239.14 252.02 239.06 248.11
  A 1.59 1.58 -20.8 0 0 236.44 246.94
  Q 235.97 247.33 235.19 248.42
  Q 230.48 254.97 224.91 260.90
  Q 224.49 261.35 224.52 260.74
  Q 225.02 250.38 232.07 242.98
  C 234.41 240.52 236.89 242.48 238.87 244.04
  C 239.98 244.92 240.95 244.65 241.45 243.37
  A 1.61 1.61 0.0 0 0 241.27 241.85
  C 238.56 238.07 234.09 237.27 230.35 240.00
  C 224.62 244.19 220.84 254.87 221.11 261.71
  C 221.29 266.39 225.60 265.33 227.75 263.00
  Q 231.83 258.59 235.44 253.67
  Q 235.80 253.18 235.90 253.78
  C 237.63 264.11 241.77 277.54 253.58 262.63
  Q 253.97 262.15 253.85 262.75
  C 253.39 265.13 252.55 267.99 252.76 270.41
  A 1.61 1.61 0.0 0 0 255.86 270.85
  C 258.44 264.26 262.40 253.85 267.66 248.92
  A 0.99 0.98 -35.4 0 1 269.20 249.18
  C 273.17 256.77 275.04 272.88 286.91 259.07
  Q 287.28 258.64 287.45 259.18
  C 290.13 267.68 298.53 267.32 302.08 259.85
  Q 302.34 259.31 302.94 259.34
  Q 310.19 259.66 315.66 254.95
  Q 316.24 254.46 316.03 255.19
  Q 314.13 262.09 313.00 269.17
  Q 312.83 270.21 313.05 270.80
  Q 313.49 271.98 314.91 271.66
  A 1.89 1.87 4.1 0 0 316.26 270.50
  C 318.78 264.08 322.94 253.00 328.32 248.65
  A 0.58 0.58 0.0 0 1 329.19 248.80
  C 331.64 252.96 333.07 263.22 338.84 264.36
  C 344.18 265.41 350.76 254.26 353.09 249.19
  Q 353.87 247.47 352.02 247.11
  A 1.70 1.69 20.2 0 0 350.21 247.94
  C 348.22 251.49 343.60 259.79 339.53 260.96
  Q 339.02 261.11 338.65 260.74
  C 335.87 258.02 334.90 252.78 333.41 249.43
  C 329.03 239.60 322.58 249.02 320.33 253.53
  A 0.15 0.15 0.0 0 1 320.06 253.42
  Q 321.80 247.28 323.55 241.23
  C 323.91 240.00 323.76 239.07 322.56 238.55
  A 1.43 1.43 0.0 0 0 320.67 239.35
  C 319.36 242.74 318.90 246.75 316.58 249.42
  Q 312.65 253.96 306.22 255.99
  Q 303.10 256.96 303.65 253.74
  C 304.10 251.03 303.75 245.90 301.74 243.17
  C 299.48 240.08 295.70 241.58 294.31 244.65
  Q 294.10 245.09 293.64 245.23
  Q 290.36 246.16 289.50 248.03
  Q 286.14 255.32 280.85 260.37
  A 2.05 2.05 0.0 0 1 277.86 260.19
  C 274.74 256.42 274.48 247.57 269.90 245.57
  C 265.57 243.67 261.84 250.17 260.09 253.32
  A 0.06 0.06 0.0 0 1 259.98 253.28
  Z"
/>
<path fill="#f2efeb" d="
  M 163.77 306.23
  Q 164.34 304.99 165.96 305.23
  A 1.34 1.33 15.5 0 1 167.00 307.06
  Q 165.54 310.56 163.68 313.42
  Q 162.90 314.61 161.86 314.73
  A 2.34 2.34 0.0 0 1 159.25 312.41
  C 159.25 310.09 159.33 307.57 159.75 305.20
  Q 164.26 280.29 170.25 255.69
  Q 170.38 255.13 169.81 255.10
  C 165.26 254.82 160.00 254.16 156.99 250.41
  C 154.71 247.55 156.63 244.40 160.03 244.48
  Q 166.26 244.63 171.18 248.40
  A 0.51 0.50 24.8 0 0 171.98 248.11
  Q 179.05 218.03 186.22 187.88
  Q 186.75 185.67 188.82 186.42
  A 1.63 1.62 16.4 0 1 189.86 188.32
  L 174.97 250.71
  A 0.21 0.21 0.0 0 0 175.22 250.96
  C 209.53 243.48 228.03 205.91 235.50 174.91
  A 1.60 1.59 23.9 0 1 237.95 173.97
  L 238.47 174.33
  Q 238.98 174.68 238.85 175.28
  C 231.62 207.29 212.77 244.97 177.90 254.07
  A 0.48 0.48 0.0 0 0 177.65 254.83
  C 185.92 265.17 192.34 277.59 199.44 288.80
  C 204.29 296.45 214.70 310.62 225.01 302.49
  A 1.24 1.23 43.2 0 1 226.51 302.45
  C 228.06 303.56 228.04 304.71 226.47 305.75
  C 212.10 315.31 199.53 296.10 193.45 286.06
  C 187.40 276.08 181.60 265.09 174.15 256.13
  Q 173.65 255.52 173.48 256.29
  L 162.81 305.91
  A 0.51 0.51 0.0 0 0 163.77 306.23
  Z
  M 169.30 251.23
  Q 165.12 248.33 160.08 247.78
  A 0.40 0.40 0.0 0 0 159.79 248.49
  Q 163.91 251.74 169.25 251.43
  Q 169.55 251.41 169.30 251.23
  Z"
/>
<path fill="#f2efeb" d="
  M 260.09 253.32
  C 261.84 250.17 265.57 243.67 269.90 245.57
  C 274.48 247.57 274.74 256.42 277.86 260.19
  A 2.05 2.05 0.0 0 0 280.85 260.37
  Q 286.14 255.32 289.50 248.03
  Q 290.36 246.16 293.64 245.23
  Q 294.10 245.09 294.31 244.65
  C 295.70 241.58 299.48 240.08 301.74 243.17
  C 303.75 245.90 304.10 251.03 303.65 253.74
  Q 303.10 256.96 306.22 255.99
  Q 312.65 253.96 316.58 249.42
  C 318.90 246.75 319.36 242.74 320.67 239.35
  A 1.43 1.43 0.0 0 1 322.56 238.55
  C 323.76 239.07 323.91 240.00 323.55 241.23
  Q 321.80 247.28 320.06 253.42
  A 0.15 0.15 0.0 0 0 320.33 253.53
  C 322.58 249.02 329.03 239.60 333.41 249.43
  C 334.90 252.78 335.87 258.02 338.65 260.74
  Q 339.02 261.11 339.53 260.96
  C 343.60 259.79 348.22 251.49 350.21 247.94
  A 1.70 1.69 20.2 0 1 352.02 247.11
  Q 353.87 247.47 353.09 249.19
  C 350.76 254.26 344.18 265.41 338.84 264.36
  C 333.07 263.22 331.64 252.96 329.19 248.80
  A 0.58 0.58 0.0 0 0 328.32 248.65
  C 322.94 253.00 318.78 264.08 316.26 270.50
  A 1.89 1.87 4.1 0 1 314.91 271.66
  Q 313.49 271.98 313.05 270.80
  Q 312.83 270.21 313.00 269.17
  Q 314.13 262.09 316.03 255.19
  Q 316.24 254.46 315.66 254.95
  Q 310.19 259.66 302.94 259.34
  Q 302.34 259.31 302.08 259.85
  C 298.53 267.32 290.13 267.68 287.45 259.18
  Q 287.28 258.64 286.91 259.07
  C 275.04 272.88 273.17 256.77 269.20 249.18
  A 0.99 0.98 -35.4 0 0 267.66 248.92
  C 262.40 253.85 258.44 264.26 255.86 270.85
  A 1.61 1.61 0.0 0 1 252.76 270.41
  C 252.55 267.99 253.39 265.13 253.85 262.75
  Q 253.97 262.15 253.58 262.63
  C 241.77 277.54 237.63 264.11 235.90 253.78
  Q 235.80 253.18 235.44 253.67
  Q 231.83 258.59 227.75 263.00
  C 225.60 265.33 221.29 266.39 221.11 261.71
  C 220.84 254.87 224.62 244.19 230.35 240.00
  C 234.09 237.27 238.56 238.07 241.27 241.85
  A 1.61 1.61 0.0 0 1 241.45 243.37
  C 240.95 244.65 239.98 244.92 238.87 244.04
  C 236.89 242.48 234.41 240.52 232.07 242.98
  Q 225.02 250.38 224.52 260.74
  Q 224.49 261.35 224.91 260.90
  Q 230.48 254.97 235.19 248.42
  Q 235.97 247.33 236.44 246.94
  A 1.59 1.58 -20.8 0 1 239.06 248.11
  C 239.14 252.02 240.00 263.51 243.85 265.66
  Q 244.32 265.93 244.81 265.71
  C 252.70 262.19 258.30 248.31 259.76 240.49
  A 2.34 2.32 -6.3 0 1 261.14 238.78
  Q 263.03 237.99 263.36 239.60
  Q 263.50 240.26 263.23 241.33
  Q 261.80 247.24 259.98 253.28
  A 0.06 0.06 0.0 0 0 260.09 253.32
  Z
  M 297.59 245.72
  Q 295.42 250.71 299.81 253.93
  Q 300.15 254.18 300.19 253.75
  Q 300.58 249.68 299.34 245.83
  Q 299.23 245.52 299.01 245.37
  Q 298.68 245.14 298.41 245.21
  Q 297.74 245.38 297.59 245.72
  Z
  M 293.49 251.18
  Q 293.02 250.00 292.33 251.06
  Q 288.72 256.64 292.87 261.70
  A 1.07 1.07 0.0 0 0 293.83 262.09
  Q 297.53 261.70 298.95 258.24
  Q 299.16 257.74 298.70 257.46
  Q 295.09 255.20 293.49 251.18
  Z"
/>
<path fill="#1c2120" d="
  M 297.59 245.72
  Q 297.74 245.38 298.41 245.21
  Q 298.68 245.14 299.01 245.37
  Q 299.23 245.52 299.34 245.83
  Q 300.58 249.68 300.19 253.75
  Q 300.15 254.18 299.81 253.93
  Q 295.42 250.71 297.59 245.72
  Z"
/>
<path fill="#1c2120" d="
  M 169.30 251.23
  Q 169.55 251.41 169.25 251.43
  Q 163.91 251.74 159.79 248.49
  A 0.40 0.40 0.0 0 1 160.08 247.78
  Q 165.12 248.33 169.30 251.23
  Z"
/>
<path fill="#1c2120" d="
  M 293.49 251.18
  Q 295.09 255.20 298.70 257.46
  Q 299.16 257.74 298.95 258.24
  Q 297.53 261.70 293.83 262.09
  A 1.07 1.07 0.0 0 1 292.87 261.70
  Q 288.72 256.64 292.33 251.06
  Q 293.02 250.00 293.49 251.18
  Z"
/>
<path fill="#899189" fill-opacity="0.992" d="
  M 71.04 257.13
  Q 72.43 268.74 72.88 274.44
  Q 72.90 274.75 72.52 275.03
  Q 70.44 266.26 71.04 257.13
  Z"
/>
<path fill="#899189" fill-opacity="0.992" d="
  M 72.80 276.69
  Q 74.28 279.07 73.62 282.10
  L 72.80 276.69
  Z"
/>
<path fill="#899189" fill-opacity="0.992" d="
  M 73.73 283.26
  Q 74.23 283.17 74.29 283.48
  C 89.89 361.01 152.06 416.89 230.70 425.31
  Q 231.44 425.38 231.24 426.05
  C 156.61 418.99 94.15 366.05 75.76 293.25
  Q 74.34 287.64 73.73 283.26
  Z"
/>
<path fill="#899189" fill-opacity="0.992" d="
  M 390.23 353.76
  Q 387.01 358.60 383.27 363.03
  Q 364.19 385.64 339.06 401.33
  Q 325.14 410.02 316.06 413.08
  C 309.76 415.20 303.05 418.03 297.20 419.67
  Q 280.49 424.35 262.76 425.96
  Q 269.68 424.67 276.41 423.58
  C 322.45 416.12 361.83 391.13 389.59 353.83
  Q 389.71 353.68 390.23 353.76
  Z"
/>
<path fill="#f2efeb" d="
  M 258.39 426.35
  Q 247.29 427.99 236.39 426.20
  L 258.39 426.35
  Z"
/>
</svg>
